# Blender 4.3.2
# www.blender.org
mtllib grid.mtl
o Grid
v -5.000000 0.010000 4.000000
v -5.000000 0.000000 3.990000
v -5.000000 -0.010000 4.000000
v -5.000000 0.000000 4.010000
v -4.000000 0.010000 5.000000
v -3.990000 -0.000000 5.000000
v -4.000000 -0.010000 5.000000
v -4.010000 0.000000 5.000000
v -5.000000 0.010000 3.000000
v -5.000000 0.000000 2.990000
v -5.000000 -0.010000 3.000000
v -5.000000 0.000000 3.010000
v -3.000000 0.010000 5.000000
v -2.990000 -0.000000 5.000000
v -3.000000 -0.010000 5.000000
v -3.010000 0.000000 5.000000
v -5.000000 0.010000 2.000000
v -5.000000 0.000000 1.990000
v -5.000000 -0.010000 2.000000
v -5.000000 0.000000 2.010000
v -2.000000 0.010000 5.000000
v -1.990000 -0.000000 5.000000
v -2.000000 -0.010000 5.000000
v -2.010000 0.000000 5.000000
v -5.000000 0.010000 1.000000
v -5.000000 0.000000 0.990000
v -5.000000 -0.010000 1.000000
v -5.000000 0.000000 1.010000
v -1.000000 0.010000 5.000000
v -0.990000 -0.000000 5.000000
v -1.000000 -0.010000 5.000000
v -1.010000 0.000000 5.000000
v -5.000000 0.010000 0.000000
v -5.000000 0.000000 -0.010000
v -5.000000 -0.010000 0.000000
v -5.000000 0.000000 0.010000
v -0.000000 0.010000 5.000000
v 0.010000 -0.000000 5.000000
v -0.000000 -0.010000 5.000000
v -0.010000 0.000000 5.000000
v -5.000000 0.010000 -1.000000
v -5.000000 0.000000 -1.010000
v -5.000000 -0.010000 -1.000000
v -5.000000 0.000000 -0.990000
v 1.000000 0.010000 5.000000
v 1.010000 -0.000000 5.000000
v 1.000000 -0.010000 5.000000
v 0.990000 0.000000 5.000000
v -5.000000 0.010000 -2.000000
v -5.000000 0.000000 -2.010000
v -5.000000 -0.010000 -2.000000
v -5.000000 0.000000 -1.990000
v 2.000000 0.010000 5.000000
v 2.010000 -0.000000 5.000000
v 2.000000 -0.010000 5.000000
v 1.990000 0.000000 5.000000
v -5.000000 0.010000 -3.000000
v -5.000000 0.000000 -3.010000
v -5.000000 -0.010000 -3.000000
v -5.000000 0.000000 -2.990000
v 3.000000 0.010000 5.000000
v 3.010000 -0.000000 5.000000
v 3.000000 -0.010000 5.000000
v 2.990000 0.000000 5.000000
v -5.000000 0.010000 -4.000000
v -5.000000 0.000000 -4.010000
v -5.000000 -0.010000 -4.000000
v -5.000000 0.000000 -3.990000
v 4.000000 0.010000 5.000000
v 4.010000 -0.000000 5.000000
v 4.000000 -0.010000 5.000000
v 3.990000 0.000000 5.000000
v -4.000000 0.010000 -5.000000
v -3.990000 -0.000000 -5.000000
v -4.000000 -0.010000 -5.000000
v -4.010000 0.000000 -5.000000
v 5.000000 0.010000 4.000000
v 5.000000 -0.000000 3.990000
v 5.000000 -0.010000 4.000000
v 5.000000 0.000000 4.010000
v -3.000000 0.010000 -5.000000
v -2.990000 -0.000000 -5.000000
v -3.000000 -0.010000 -5.000000
v -3.010000 0.000000 -5.000000
v 5.000000 0.010000 3.000000
v 5.000000 -0.000000 2.990000
v 5.000000 -0.010000 3.000000
v 5.000000 0.000000 3.010000
v -2.000000 0.010000 -5.000000
v -1.990000 -0.000000 -5.000000
v -2.000000 -0.010000 -5.000000
v -2.010000 0.000000 -5.000000
v 5.000000 0.010000 2.000000
v 5.000000 -0.000000 1.990000
v 5.000000 -0.010000 2.000000
v 5.000000 0.000000 2.010000
v -1.000000 0.010000 -5.000000
v -0.990000 -0.000000 -5.000000
v -1.000000 -0.010000 -5.000000
v -1.010000 0.000000 -5.000000
v 5.000000 0.010000 1.000000
v 5.000000 -0.000000 0.990000
v 5.000000 -0.010000 1.000000
v 5.000000 0.000000 1.010000
v -0.000000 0.010000 -5.000000
v 0.010000 -0.000000 -5.000000
v -0.000000 -0.010000 -5.000000
v -0.010000 0.000000 -5.000000
v 5.000000 0.010000 0.000000
v 5.000000 -0.000000 -0.010000
v 5.000000 -0.010000 0.000000
v 5.000000 0.000000 0.010000
v 1.000000 0.010000 -5.000000
v 1.010000 -0.000000 -5.000000
v 1.000000 -0.010000 -5.000000
v 0.990000 0.000000 -5.000000
v 5.000000 0.010000 -1.000000
v 5.000000 -0.000000 -1.010000
v 5.000000 -0.010000 -1.000000
v 5.000000 0.000000 -0.990000
v 2.000000 0.010000 -5.000000
v 2.010000 -0.000000 -5.000000
v 2.000000 -0.010000 -5.000000
v 1.990000 0.000000 -5.000000
v 5.000000 0.010000 -2.000000
v 5.000000 -0.000000 -2.010000
v 5.000000 -0.010000 -2.000000
v 5.000000 0.000000 -1.990000
v 3.000000 0.010000 -5.000000
v 3.010000 -0.000000 -5.000000
v 3.000000 -0.010000 -5.000000
v 2.990000 0.000000 -5.000000
v 5.000000 0.010000 -3.000000
v 5.000000 -0.000000 -3.010000
v 5.000000 -0.010000 -3.000000
v 5.000000 0.000000 -2.990000
v 4.000000 0.010000 -5.000000
v 4.010000 -0.000000 -5.000000
v 4.000000 -0.010000 -5.000000
v 3.990000 0.000000 -5.000000
v 5.000000 0.010000 -4.000000
v 5.000000 -0.000000 -4.010000
v 5.000000 -0.010000 -4.000000
v 5.000000 0.000000 -3.990000
v 5.000000 0.010000 -4.000000
v 5.000000 -0.000000 -4.010000
v 5.000000 -0.010000 -4.000000
v 5.000000 0.000000 -3.990000
v 4.000000 0.010000 -4.000000
v 4.007071 -0.000000 -4.007071
v 4.000000 -0.010000 -4.000000
v 3.992929 0.000000 -3.992929
v 4.000000 0.010000 -5.000000
v 4.010000 -0.000000 -5.000000
v 4.000000 -0.010000 -5.000000
v 3.990000 0.000000 -5.000000
v 5.000000 0.010000 -3.000000
v 5.000000 -0.000000 -3.010000
v 5.000000 -0.010000 -3.000000
v 5.000000 0.000000 -2.990000
v 4.000000 0.010000 -3.000000
v 4.007071 -0.000000 -3.007071
v 4.000000 -0.010000 -3.000000
v 3.992929 0.000000 -2.992929
v 4.000000 0.010000 -4.000000
v 4.007071 -0.000000 -4.007071
v 4.000000 -0.010000 -4.000000
v 3.992929 0.000000 -3.992929
v 3.000000 0.010000 -4.000000
v 3.007071 -0.000000 -4.007071
v 3.000000 -0.010000 -4.000000
v 2.992929 0.000000 -3.992929
v 3.000000 0.010000 -5.000000
v 3.010000 -0.000000 -5.000000
v 3.000000 -0.010000 -5.000000
v 2.990000 0.000000 -5.000000
v 5.000000 0.010000 -2.000000
v 5.000000 -0.000000 -2.010000
v 5.000000 -0.010000 -2.000000
v 5.000000 0.000000 -1.990000
v 4.000000 0.010000 -2.000000
v 4.007071 -0.000000 -2.007071
v 4.000000 -0.010000 -2.000000
v 3.992929 0.000000 -1.992929
v 4.000000 0.010000 -3.000000
v 4.007071 -0.000000 -3.007071
v 4.000000 -0.010000 -3.000000
v 3.992929 0.000000 -2.992929
v 3.000000 0.010000 -3.000000
v 3.007071 -0.000000 -3.007071
v 3.000000 -0.010000 -3.000000
v 2.992929 0.000000 -2.992929
v 3.000000 0.010000 -4.000000
v 3.007071 -0.000000 -4.007071
v 3.000000 -0.010000 -4.000000
v 2.992929 0.000000 -3.992929
v 2.000000 0.010000 -4.000000
v 2.007071 -0.000000 -4.007071
v 2.000000 -0.010000 -4.000000
v 1.992929 0.000000 -3.992929
v 2.000000 0.010000 -5.000000
v 2.010000 -0.000000 -5.000000
v 2.000000 -0.010000 -5.000000
v 1.990000 0.000000 -5.000000
v 5.000000 0.010000 -1.000000
v 5.000000 -0.000000 -1.010000
v 5.000000 -0.010000 -1.000000
v 5.000000 0.000000 -0.990000
v 4.000000 0.010000 -1.000000
v 4.007071 -0.000000 -1.007071
v 4.000000 -0.010000 -1.000000
v 3.992929 0.000000 -0.992929
v 4.000000 0.010000 -2.000000
v 4.007071 -0.000000 -2.007071
v 4.000000 -0.010000 -2.000000
v 3.992929 0.000000 -1.992929
v 3.000000 0.010000 -2.000000
v 3.007071 -0.000000 -2.007071
v 3.000000 -0.010000 -2.000000
v 2.992929 0.000000 -1.992929
v 3.000000 0.010000 -3.000000
v 3.007071 -0.000000 -3.007071
v 3.000000 -0.010000 -3.000000
v 2.992929 0.000000 -2.992929
v 2.000000 0.010000 -3.000000
v 2.007071 -0.000000 -3.007071
v 2.000000 -0.010000 -3.000000
v 1.992929 0.000000 -2.992929
v 2.000000 0.010000 -4.000000
v 2.007071 -0.000000 -4.007071
v 2.000000 -0.010000 -4.000000
v 1.992929 0.000000 -3.992929
v 1.000000 0.010000 -4.000000
v 1.007071 -0.000000 -4.007071
v 1.000000 -0.010000 -4.000000
v 0.992929 0.000000 -3.992929
v 1.000000 0.010000 -5.000000
v 1.010000 -0.000000 -5.000000
v 1.000000 -0.010000 -5.000000
v 0.990000 0.000000 -5.000000
v 5.000000 0.010000 0.000000
v 5.000000 -0.000000 -0.010000
v 5.000000 -0.010000 0.000000
v 5.000000 0.000000 0.010000
v 4.000000 0.010000 -0.000000
v 4.007071 -0.000000 -0.007071
v 4.000000 -0.010000 0.000000
v 3.992929 0.000000 0.007071
v 4.000000 0.010000 -1.000000
v 4.007071 -0.000000 -1.007071
v 4.000000 -0.010000 -1.000000
v 3.992929 0.000000 -0.992929
v 3.000000 0.010000 -1.000000
v 3.007071 -0.000000 -1.007071
v 3.000000 -0.010000 -1.000000
v 2.992929 0.000000 -0.992929
v 3.000000 0.010000 -2.000000
v 3.007071 -0.000000 -2.007071
v 3.000000 -0.010000 -2.000000
v 2.992929 0.000000 -1.992929
v 2.000000 0.010000 -2.000000
v 2.007071 -0.000000 -2.007071
v 2.000000 -0.010000 -2.000000
v 1.992929 0.000000 -1.992929
v 2.000000 0.010000 -3.000000
v 2.007071 -0.000000 -3.007071
v 2.000000 -0.010000 -3.000000
v 1.992929 0.000000 -2.992929
v 1.000000 0.010000 -3.000000
v 1.007071 -0.000000 -3.007071
v 1.000000 -0.010000 -3.000000
v 0.992929 0.000000 -2.992929
v 1.000000 0.010000 -4.000000
v 1.007071 -0.000000 -4.007071
v 1.000000 -0.010000 -4.000000
v 0.992929 0.000000 -3.992929
v 0.000000 0.010000 -4.000000
v 0.007071 -0.000000 -4.007071
v -0.000000 -0.010000 -4.000000
v -0.007071 0.000000 -3.992929
v -0.000000 0.010000 -5.000000
v 0.010000 -0.000000 -5.000000
v -0.000000 -0.010000 -5.000000
v -0.010000 0.000000 -5.000000
v 5.000000 0.010000 1.000000
v 5.000000 -0.000000 0.990000
v 5.000000 -0.010000 1.000000
v 5.000000 0.000000 1.010000
v 4.000000 0.010000 1.000000
v 4.007071 -0.000000 0.992929
v 4.000000 -0.010000 1.000000
v 3.992929 0.000000 1.007071
v 4.000000 0.010000 -0.000000
v 4.007071 -0.000000 -0.007071
v 4.000000 -0.010000 0.000000
v 3.992929 0.000000 0.007071
v 3.000000 0.010000 -0.000000
v 3.007071 -0.000000 -0.007071
v 3.000000 -0.010000 0.000000
v 2.992929 0.000000 0.007071
v 3.000000 0.010000 -1.000000
v 3.007071 -0.000000 -1.007071
v 3.000000 -0.010000 -1.000000
v 2.992929 0.000000 -0.992929
v 2.000000 0.010000 -1.000000
v 2.007071 -0.000000 -1.007071
v 2.000000 -0.010000 -1.000000
v 1.992929 0.000000 -0.992929
v 2.000000 0.010000 -2.000000
v 2.007071 -0.000000 -2.007071
v 2.000000 -0.010000 -2.000000
v 1.992929 0.000000 -1.992929
v 1.000000 0.010000 -2.000000
v 1.007071 -0.000000 -2.007071
v 1.000000 -0.010000 -2.000000
v 0.992929 0.000000 -1.992929
v 1.000000 0.010000 -3.000000
v 1.007071 -0.000000 -3.007071
v 1.000000 -0.010000 -3.000000
v 0.992929 0.000000 -2.992929
v 0.000000 0.010000 -3.000000
v 0.007071 -0.000000 -3.007071
v -0.000000 -0.010000 -3.000000
v -0.007071 0.000000 -2.992929
v 0.000000 0.010000 -4.000000
v 0.007071 -0.000000 -4.007071
v -0.000000 -0.010000 -4.000000
v -0.007071 0.000000 -3.992929
v -1.000000 0.010000 -4.000000
v -0.992929 -0.000000 -4.007071
v -1.000000 -0.010000 -4.000000
v -1.007071 0.000000 -3.992929
v -1.000000 0.010000 -5.000000
v -0.990000 -0.000000 -5.000000
v -1.000000 -0.010000 -5.000000
v -1.010000 0.000000 -5.000000
v 5.000000 0.010000 2.000000
v 5.000000 -0.000000 1.990000
v 5.000000 -0.010000 2.000000
v 5.000000 0.000000 2.010000
v 4.000000 0.010000 2.000000
v 4.007071 -0.000000 1.992929
v 4.000000 -0.010000 2.000000
v 3.992929 0.000000 2.007071
v 4.000000 0.010000 1.000000
v 4.007071 -0.000000 0.992929
v 4.000000 -0.010000 1.000000
v 3.992929 0.000000 1.007071
v 3.000000 0.010000 1.000000
v 3.007071 -0.000000 0.992929
v 3.000000 -0.010000 1.000000
v 2.992929 0.000000 1.007071
v 3.000000 0.010000 -0.000000
v 3.007071 -0.000000 -0.007071
v 3.000000 -0.010000 0.000000
v 2.992929 0.000000 0.007071
v 2.000000 0.010000 -0.000000
v 2.007071 -0.000000 -0.007071
v 2.000000 -0.010000 0.000000
v 1.992929 0.000000 0.007071
v 2.000000 0.010000 -1.000000
v 2.007071 -0.000000 -1.007071
v 2.000000 -0.010000 -1.000000
v 1.992929 0.000000 -0.992929
v 1.000000 0.010000 -1.000000
v 1.007071 -0.000000 -1.007071
v 1.000000 -0.010000 -1.000000
v 0.992929 0.000000 -0.992929
v 1.000000 0.010000 -2.000000
v 1.007071 -0.000000 -2.007071
v 1.000000 -0.010000 -2.000000
v 0.992929 0.000000 -1.992929
v 0.000000 0.010000 -2.000000
v 0.007071 -0.000000 -2.007071
v -0.000000 -0.010000 -2.000000
v -0.007071 0.000000 -1.992929
v 0.000000 0.010000 -3.000000
v 0.007071 -0.000000 -3.007071
v -0.000000 -0.010000 -3.000000
v -0.007071 0.000000 -2.992929
v -1.000000 0.010000 -3.000000
v -0.992929 -0.000000 -3.007071
v -1.000000 -0.010000 -3.000000
v -1.007071 0.000000 -2.992929
v -1.000000 0.010000 -4.000000
v -0.992929 -0.000000 -4.007071
v -1.000000 -0.010000 -4.000000
v -1.007071 0.000000 -3.992929
v -2.000000 0.010000 -4.000000
v -1.992929 -0.000000 -4.007071
v -2.000000 -0.010000 -4.000000
v -2.007071 0.000000 -3.992929
v -2.000000 0.010000 -5.000000
v -1.990000 -0.000000 -5.000000
v -2.000000 -0.010000 -5.000000
v -2.010000 0.000000 -5.000000
v 5.000000 0.010000 3.000000
v 5.000000 -0.000000 2.990000
v 5.000000 -0.010000 3.000000
v 5.000000 0.000000 3.010000
v 4.000000 0.010000 3.000000
v 4.007071 -0.000000 2.992929
v 4.000000 -0.010000 3.000000
v 3.992929 0.000000 3.007071
v 4.000000 0.010000 2.000000
v 4.007071 -0.000000 1.992929
v 4.000000 -0.010000 2.000000
v 3.992929 0.000000 2.007071
v 3.000000 0.010000 2.000000
v 3.007071 -0.000000 1.992929
v 3.000000 -0.010000 2.000000
v 2.992929 0.000000 2.007071
v 3.000000 0.010000 1.000000
v 3.007071 -0.000000 0.992929
v 3.000000 -0.010000 1.000000
v 2.992929 0.000000 1.007071
v 2.000000 0.010000 1.000000
v 2.007071 -0.000000 0.992929
v 2.000000 -0.010000 1.000000
v 1.992929 0.000000 1.007071
v 2.000000 0.010000 -0.000000
v 2.007071 -0.000000 -0.007071
v 2.000000 -0.010000 0.000000
v 1.992929 0.000000 0.007071
v 1.000000 0.010000 -0.000000
v 1.007071 -0.000000 -0.007071
v 1.000000 -0.010000 0.000000
v 0.992929 0.000000 0.007071
v 1.000000 0.010000 -1.000000
v 1.007071 -0.000000 -1.007071
v 1.000000 -0.010000 -1.000000
v 0.992929 0.000000 -0.992929
v 0.000000 0.010000 -1.000000
v 0.007071 -0.000000 -1.007071
v -0.000000 -0.010000 -1.000000
v -0.007071 0.000000 -0.992929
v 0.000000 0.010000 -2.000000
v 0.007071 -0.000000 -2.007071
v -0.000000 -0.010000 -2.000000
v -0.007071 0.000000 -1.992929
v -1.000000 0.010000 -2.000000
v -0.992929 -0.000000 -2.007071
v -1.000000 -0.010000 -2.000000
v -1.007071 0.000000 -1.992929
v -1.000000 0.010000 -3.000000
v -0.992929 -0.000000 -3.007071
v -1.000000 -0.010000 -3.000000
v -1.007071 0.000000 -2.992929
v -2.000000 0.010000 -3.000000
v -1.992929 -0.000000 -3.007071
v -2.000000 -0.010000 -3.000000
v -2.007071 0.000000 -2.992929
v -2.000000 0.010000 -4.000000
v -1.992929 -0.000000 -4.007071
v -2.000000 -0.010000 -4.000000
v -2.007071 0.000000 -3.992929
v -3.000000 0.010000 -4.000000
v -2.992929 -0.000000 -4.007071
v -3.000000 -0.010000 -4.000000
v -3.007071 0.000000 -3.992929
v -3.000000 0.010000 -5.000000
v -2.990000 -0.000000 -5.000000
v -3.000000 -0.010000 -5.000000
v -3.010000 0.000000 -5.000000
v 5.000000 0.010000 4.000000
v 5.000000 -0.000000 3.990000
v 5.000000 -0.010000 4.000000
v 5.000000 0.000000 4.010000
v 4.000000 0.010000 4.000000
v 4.007071 -0.000000 3.992929
v 4.000000 -0.010000 4.000000
v 3.992929 0.000000 4.007071
v 4.000000 0.010000 3.000000
v 4.007071 -0.000000 2.992929
v 4.000000 -0.010000 3.000000
v 3.992929 0.000000 3.007071
v 3.000000 0.010000 3.000000
v 3.007071 -0.000000 2.992929
v 3.000000 -0.010000 3.000000
v 2.992929 0.000000 3.007071
v 3.000000 0.010000 2.000000
v 3.007071 -0.000000 1.992929
v 3.000000 -0.010000 2.000000
v 2.992929 0.000000 2.007071
v 2.000000 0.010000 2.000000
v 2.007071 -0.000000 1.992929
v 2.000000 -0.010000 2.000000
v 1.992929 0.000000 2.007071
v 2.000000 0.010000 1.000000
v 2.007071 -0.000000 0.992929
v 2.000000 -0.010000 1.000000
v 1.992929 0.000000 1.007071
v 1.000000 0.010000 1.000000
v 1.007071 -0.000000 0.992929
v 1.000000 -0.010000 1.000000
v 0.992929 0.000000 1.007071
v 1.000000 0.010000 -0.000000
v 1.007071 -0.000000 -0.007071
v 1.000000 -0.010000 0.000000
v 0.992929 0.000000 0.007071
v 0.000000 0.010000 -0.000000
v 0.007071 -0.000000 -0.007071
v -0.000000 -0.010000 0.000000
v -0.007071 0.000000 0.007071
v 0.000000 0.010000 -1.000000
v 0.007071 -0.000000 -1.007071
v -0.000000 -0.010000 -1.000000
v -0.007071 0.000000 -0.992929
v -1.000000 0.010000 -1.000000
v -0.992929 -0.000000 -1.007071
v -1.000000 -0.010000 -1.000000
v -1.007071 0.000000 -0.992929
v -1.000000 0.010000 -2.000000
v -0.992929 -0.000000 -2.007071
v -1.000000 -0.010000 -2.000000
v -1.007071 0.000000 -1.992929
v -2.000000 0.010000 -2.000000
v -1.992929 -0.000000 -2.007071
v -2.000000 -0.010000 -2.000000
v -2.007071 0.000000 -1.992929
v -2.000000 0.010000 -3.000000
v -1.992929 -0.000000 -3.007071
v -2.000000 -0.010000 -3.000000
v -2.007071 0.000000 -2.992929
v -3.000000 0.010000 -3.000000
v -2.992929 -0.000000 -3.007071
v -3.000000 -0.010000 -3.000000
v -3.007071 0.000000 -2.992929
v -3.000000 0.010000 -4.000000
v -2.992929 -0.000000 -4.007071
v -3.000000 -0.010000 -4.000000
v -3.007071 0.000000 -3.992929
v -4.000000 0.010000 -4.000000
v -3.992929 -0.000000 -4.007071
v -4.000000 -0.010000 -4.000000
v -4.007071 0.000000 -3.992929
v -4.000000 0.010000 -5.000000
v -3.990000 -0.000000 -5.000000
v -4.000000 -0.010000 -5.000000
v -4.010000 0.000000 -5.000000
v 4.000000 0.010000 5.000000
v 4.010000 -0.000000 5.000000
v 4.000000 -0.010000 5.000000
v 3.990000 0.000000 5.000000
v 4.000000 0.010000 4.000000
v 4.007071 0.000000 3.992929
v 4.000000 -0.010000 4.000000
v 3.992929 0.000000 4.007071
v 3.000000 0.010000 4.000000
v 3.007071 0.000000 3.992929
v 3.000000 -0.010000 4.000000
v 2.992929 0.000000 4.007071
v 3.000000 0.010000 3.000000
v 3.007071 0.000000 2.992929
v 3.000000 -0.010000 3.000000
v 2.992929 0.000000 3.007071
v 2.000000 0.010000 3.000000
v 2.007071 0.000000 2.992929
v 2.000000 -0.010000 3.000000
v 1.992929 0.000000 3.007071
v 2.000000 0.010000 2.000000
v 2.007071 0.000000 1.992929
v 2.000000 -0.010000 2.000000
v 1.992929 0.000000 2.007071
v 1.000000 0.010000 2.000000
v 1.007071 0.000000 1.992929
v 1.000000 -0.010000 2.000000
v 0.992929 0.000000 2.007071
v 1.000000 0.010000 1.000000
v 1.007071 0.000000 0.992929
v 1.000000 -0.010000 1.000000
v 0.992929 0.000000 1.007071
v -0.000000 0.010000 1.000000
v 0.007071 0.000000 0.992929
v 0.000000 -0.010000 1.000000
v -0.007071 0.000000 1.007071
v -0.000000 0.010000 0.000000
v 0.007071 0.000000 -0.007071
v 0.000000 -0.010000 0.000000
v -0.007071 0.000000 0.007071
v -1.000000 0.010000 0.000000
v -0.992929 0.000000 -0.007071
v -1.000000 -0.010000 0.000000
v -1.007071 0.000000 0.007071
v -1.000000 0.010000 -1.000000
v -0.992929 0.000000 -1.007071
v -1.000000 -0.010000 -1.000000
v -1.007071 0.000000 -0.992929
v -2.000000 0.010000 -1.000000
v -1.992929 0.000000 -1.007071
v -2.000000 -0.010000 -1.000000
v -2.007071 0.000000 -0.992929
v -2.000000 0.010000 -2.000000
v -1.992929 0.000000 -2.007071
v -2.000000 -0.010000 -2.000000
v -2.007071 0.000000 -1.992929
v -3.000000 0.010000 -2.000000
v -2.992929 0.000000 -2.007071
v -3.000000 -0.010000 -2.000000
v -3.007071 0.000000 -1.992929
v -3.000000 0.010000 -3.000000
v -2.992929 0.000000 -3.007071
v -3.000000 -0.010000 -3.000000
v -3.007071 0.000000 -2.992929
v -4.000000 0.010000 -3.000000
v -3.992929 0.000000 -3.007071
v -4.000000 -0.010000 -3.000000
v -4.007071 0.000000 -2.992929
v -4.000000 0.010000 -4.000000
v -3.992929 0.000000 -4.007071
v -4.000000 -0.010000 -4.000000
v -4.007071 0.000000 -3.992929
v -5.000000 0.010000 -4.000000
v -5.000000 0.000000 -4.010000
v -5.000000 -0.010000 -4.000000
v -5.000000 0.000000 -3.990000
v 3.000000 0.010000 5.000000
v 3.010000 -0.000000 5.000000
v 3.000000 -0.010000 5.000000
v 2.990000 0.000000 5.000000
v 3.000000 0.010000 4.000000
v 3.007071 0.000000 3.992929
v 3.000000 -0.010000 4.000000
v 2.992929 0.000000 4.007071
v 2.000000 0.010000 4.000000
v 2.007071 0.000000 3.992929
v 2.000000 -0.010000 4.000000
v 1.992929 0.000000 4.007071
v 2.000000 0.010000 3.000000
v 2.007071 0.000000 2.992929
v 2.000000 -0.010000 3.000000
v 1.992929 0.000000 3.007071
v 1.000000 0.010000 3.000000
v 1.007071 0.000000 2.992929
v 1.000000 -0.010000 3.000000
v 0.992929 0.000000 3.007071
v 1.000000 0.010000 2.000000
v 1.007071 0.000000 1.992929
v 1.000000 -0.010000 2.000000
v 0.992929 0.000000 2.007071
v -0.000000 0.010000 2.000000
v 0.007071 0.000000 1.992929
v 0.000000 -0.010000 2.000000
v -0.007071 0.000000 2.007071
v -0.000000 0.010000 1.000000
v 0.007071 0.000000 0.992929
v 0.000000 -0.010000 1.000000
v -0.007071 0.000000 1.007071
v -1.000000 0.010000 1.000000
v -0.992929 0.000000 0.992929
v -1.000000 -0.010000 1.000000
v -1.007071 0.000000 1.007071
v -1.000000 0.010000 0.000000
v -0.992929 0.000000 -0.007071
v -1.000000 -0.010000 0.000000
v -1.007071 0.000000 0.007071
v -2.000000 0.010000 0.000000
v -1.992929 0.000000 -0.007071
v -2.000000 -0.010000 0.000000
v -2.007071 0.000000 0.007071
v -2.000000 0.010000 -1.000000
v -1.992929 0.000000 -1.007071
v -2.000000 -0.010000 -1.000000
v -2.007071 0.000000 -0.992929
v -3.000000 0.010000 -1.000000
v -2.992929 0.000000 -1.007071
v -3.000000 -0.010000 -1.000000
v -3.007071 0.000000 -0.992929
v -3.000000 0.010000 -2.000000
v -2.992929 0.000000 -2.007071
v -3.000000 -0.010000 -2.000000
v -3.007071 0.000000 -1.992929
v -4.000000 0.010000 -2.000000
v -3.992929 0.000000 -2.007071
v -4.000000 -0.010000 -2.000000
v -4.007071 0.000000 -1.992929
v -4.000000 0.010000 -3.000000
v -3.992929 0.000000 -3.007071
v -4.000000 -0.010000 -3.000000
v -4.007071 0.000000 -2.992929
v -5.000000 0.010000 -3.000000
v -5.000000 0.000000 -3.010000
v -5.000000 -0.010000 -3.000000
v -5.000000 0.000000 -2.990000
v 2.000000 0.010000 5.000000
v 2.010000 -0.000000 5.000000
v 2.000000 -0.010000 5.000000
v 1.990000 0.000000 5.000000
v 2.000000 0.010000 4.000000
v 2.007071 0.000000 3.992929
v 2.000000 -0.010000 4.000000
v 1.992929 0.000000 4.007071
v 1.000000 0.010000 4.000000
v 1.007071 0.000000 3.992929
v 1.000000 -0.010000 4.000000
v 0.992929 0.000000 4.007071
v 1.000000 0.010000 3.000000
v 1.007071 0.000000 2.992929
v 1.000000 -0.010000 3.000000
v 0.992929 0.000000 3.007071
v -0.000000 0.010000 3.000000
v 0.007071 0.000000 2.992929
v 0.000000 -0.010000 3.000000
v -0.007071 0.000000 3.007071
v -0.000000 0.010000 2.000000
v 0.007071 0.000000 1.992929
v 0.000000 -0.010000 2.000000
v -0.007071 0.000000 2.007071
v -1.000000 0.010000 2.000000
v -0.992929 0.000000 1.992929
v -1.000000 -0.010000 2.000000
v -1.007071 0.000000 2.007071
v -1.000000 0.010000 1.000000
v -0.992929 0.000000 0.992929
v -1.000000 -0.010000 1.000000
v -1.007071 0.000000 1.007071
v -2.000000 0.010000 1.000000
v -1.992929 0.000000 0.992929
v -2.000000 -0.010000 1.000000
v -2.007071 0.000000 1.007071
v -2.000000 0.010000 0.000000
v -1.992929 0.000000 -0.007071
v -2.000000 -0.010000 0.000000
v -2.007071 0.000000 0.007071
v -3.000000 0.010000 0.000000
v -2.992929 0.000000 -0.007071
v -3.000000 -0.010000 0.000000
v -3.007071 0.000000 0.007071
v -3.000000 0.010000 -1.000000
v -2.992929 0.000000 -1.007071
v -3.000000 -0.010000 -1.000000
v -3.007071 0.000000 -0.992929
v -4.000000 0.010000 -1.000000
v -3.992929 0.000000 -1.007071
v -4.000000 -0.010000 -1.000000
v -4.007071 0.000000 -0.992929
v -4.000000 0.010000 -2.000000
v -3.992929 0.000000 -2.007071
v -4.000000 -0.010000 -2.000000
v -4.007071 0.000000 -1.992929
v -5.000000 0.010000 -2.000000
v -5.000000 0.000000 -2.010000
v -5.000000 -0.010000 -2.000000
v -5.000000 0.000000 -1.990000
v 1.000000 0.010000 5.000000
v 1.010000 -0.000000 5.000000
v 1.000000 -0.010000 5.000000
v 0.990000 0.000000 5.000000
v 1.000000 0.010000 4.000000
v 1.007071 0.000000 3.992929
v 1.000000 -0.010000 4.000000
v 0.992929 0.000000 4.007071
v -0.000000 0.010000 4.000000
v 0.007071 0.000000 3.992929
v 0.000000 -0.010000 4.000000
v -0.007071 0.000000 4.007071
v -0.000000 0.010000 3.000000
v 0.007071 0.000000 2.992929
v 0.000000 -0.010000 3.000000
v -0.007071 0.000000 3.007071
v -1.000000 0.010000 3.000000
v -0.992929 0.000000 2.992929
v -1.000000 -0.010000 3.000000
v -1.007071 0.000000 3.007071
v -1.000000 0.010000 2.000000
v -0.992929 0.000000 1.992929
v -1.000000 -0.010000 2.000000
v -1.007071 0.000000 2.007071
v -2.000000 0.010000 2.000000
v -1.992929 0.000000 1.992929
v -2.000000 -0.010000 2.000000
v -2.007071 0.000000 2.007071
v -2.000000 0.010000 1.000000
v -1.992929 0.000000 0.992929
v -2.000000 -0.010000 1.000000
v -2.007071 0.000000 1.007071
v -3.000000 0.010000 1.000000
v -2.992929 0.000000 0.992929
v -3.000000 -0.010000 1.000000
v -3.007071 0.000000 1.007071
v -3.000000 0.010000 0.000000
v -2.992929 0.000000 -0.007071
v -3.000000 -0.010000 0.000000
v -3.007071 0.000000 0.007071
v -4.000000 0.010000 0.000000
v -3.992929 0.000000 -0.007071
v -4.000000 -0.010000 0.000000
v -4.007071 0.000000 0.007071
v -4.000000 0.010000 -1.000000
v -3.992929 0.000000 -1.007071
v -4.000000 -0.010000 -1.000000
v -4.007071 0.000000 -0.992929
v -5.000000 0.010000 -1.000000
v -5.000000 0.000000 -1.010000
v -5.000000 -0.010000 -1.000000
v -5.000000 0.000000 -0.990000
v -0.000000 0.010000 5.000000
v 0.010000 -0.000000 5.000000
v -0.000000 -0.010000 5.000000
v -0.010000 0.000000 5.000000
v -0.000000 0.010000 4.000000
v 0.007071 0.000000 3.992929
v 0.000000 -0.010000 4.000000
v -0.007071 0.000000 4.007071
v -1.000000 0.010000 4.000000
v -0.992929 0.000000 3.992929
v -1.000000 -0.010000 4.000000
v -1.007071 0.000000 4.007071
v -1.000000 0.010000 3.000000
v -0.992929 0.000000 2.992929
v -1.000000 -0.010000 3.000000
v -1.007071 0.000000 3.007071
v -2.000000 0.010000 3.000000
v -1.992929 0.000000 2.992929
v -2.000000 -0.010000 3.000000
v -2.007071 0.000000 3.007071
v -2.000000 0.010000 2.000000
v -1.992929 0.000000 1.992929
v -2.000000 -0.010000 2.000000
v -2.007071 0.000000 2.007071
v -3.000000 0.010000 2.000000
v -2.992929 0.000000 1.992929
v -3.000000 -0.010000 2.000000
v -3.007071 0.000000 2.007071
v -3.000000 0.010000 1.000000
v -2.992929 0.000000 0.992929
v -3.000000 -0.010000 1.000000
v -3.007071 0.000000 1.007071
v -4.000000 0.010000 1.000000
v -3.992929 0.000000 0.992929
v -4.000000 -0.010000 1.000000
v -4.007071 0.000000 1.007071
v -4.000000 0.010000 0.000000
v -3.992929 0.000000 -0.007071
v -4.000000 -0.010000 0.000000
v -4.007071 0.000000 0.007071
v -5.000000 0.010000 0.000000
v -5.000000 0.000000 -0.010000
v -5.000000 -0.010000 0.000000
v -5.000000 0.000000 0.010000
v -1.000000 0.010000 5.000000
v -0.990000 -0.000000 5.000000
v -1.000000 -0.010000 5.000000
v -1.010000 0.000000 5.000000
v -1.000000 0.010000 4.000000
v -0.992929 0.000000 3.992929
v -1.000000 -0.010000 4.000000
v -1.007071 0.000000 4.007071
v -2.000000 0.010000 4.000000
v -1.992929 0.000000 3.992929
v -2.000000 -0.010000 4.000000
v -2.007071 0.000000 4.007071
v -2.000000 0.010000 3.000000
v -1.992929 0.000000 2.992929
v -2.000000 -0.010000 3.000000
v -2.007071 0.000000 3.007071
v -3.000000 0.010000 3.000000
v -2.992929 0.000000 2.992929
v -3.000000 -0.010000 3.000000
v -3.007071 0.000000 3.007071
v -3.000000 0.010000 2.000000
v -2.992929 0.000000 1.992929
v -3.000000 -0.010000 2.000000
v -3.007071 0.000000 2.007071
v -4.000000 0.010000 2.000000
v -3.992929 0.000000 1.992929
v -4.000000 -0.010000 2.000000
v -4.007071 0.000000 2.007071
v -4.000000 0.010000 1.000000
v -3.992929 0.000000 0.992929
v -4.000000 -0.010000 1.000000
v -4.007071 0.000000 1.007071
v -5.000000 0.010000 1.000000
v -5.000000 0.000000 0.990000
v -5.000000 -0.010000 1.000000
v -5.000000 0.000000 1.010000
v -2.000000 0.010000 5.000000
v -1.990000 -0.000000 5.000000
v -2.000000 -0.010000 5.000000
v -2.010000 0.000000 5.000000
v -2.000000 0.010000 4.000000
v -1.992929 0.000000 3.992929
v -2.000000 -0.010000 4.000000
v -2.007071 0.000000 4.007071
v -3.000000 0.010000 4.000000
v -2.992929 0.000000 3.992929
v -3.000000 -0.010000 4.000000
v -3.007071 0.000000 4.007071
v -3.000000 0.010000 3.000000
v -2.992929 0.000000 2.992929
v -3.000000 -0.010000 3.000000
v -3.007071 0.000000 3.007071
v -4.000000 0.010000 3.000000
v -3.992929 0.000000 2.992929
v -4.000000 -0.010000 3.000000
v -4.007071 0.000000 3.007071
v -4.000000 0.010000 2.000000
v -3.992929 0.000000 1.992929
v -4.000000 -0.010000 2.000000
v -4.007071 0.000000 2.007071
v -5.000000 0.010000 2.000000
v -5.000000 0.000000 1.990000
v -5.000000 -0.010000 2.000000
v -5.000000 0.000000 2.010000
v -3.000000 0.010000 5.000000
v -2.990000 -0.000000 5.000000
v -3.000000 -0.010000 5.000000
v -3.010000 0.000000 5.000000
v -3.000000 0.010000 4.000000
v -2.992929 0.000000 3.992929
v -3.000000 -0.010000 4.000000
v -3.007071 0.000000 4.007071
v -4.000000 0.010000 4.000000
v -3.992929 0.000000 3.992929
v -4.000000 -0.010000 4.000000
v -4.007071 0.000000 4.007071
v -4.000000 0.010000 3.000000
v -3.992929 0.000000 2.992929
v -4.000000 -0.010000 3.000000
v -4.007071 0.000000 3.007071
v -5.000000 0.010000 3.000000
v -5.000000 0.000000 2.990000
v -5.000000 -0.010000 3.000000
v -5.000000 0.000000 3.010000
v -4.000000 0.010000 5.000000
v -3.990000 -0.000000 5.000000
v -4.000000 -0.010000 5.000000
v -4.010000 0.000000 5.000000
v -4.000000 0.010000 4.000000
v -3.992929 0.000000 3.992929
v -4.000000 -0.010000 4.000000
v -4.007071 0.000000 4.007071
v -5.000000 0.010000 4.000000
v -5.000000 0.000000 3.990000
v -5.000000 -0.010000 4.000000
v -5.000000 0.000000 4.010000
vn -1.0000 -0.0000 -0.0000
vn -0.0000 -0.0000 1.0000
vn -0.0000 -0.0000 -1.0000
vn 1.0000 -0.0000 -0.0000
vn -0.0011 0.6494 0.7604
vn -0.0011 0.6490 -0.7608
vn -0.0011 -0.6490 -0.7608
vn -0.0011 -0.6494 0.7604
vn -0.7604 0.6494 0.0011
vn 0.7608 0.6490 0.0011
vn 0.7608 -0.6490 0.0011
vn -0.7604 -0.6494 0.0011
vn -0.8165 0.5774 -0.0000
vn 0.8165 0.5774 -0.0000
vn 0.8165 -0.5774 -0.0000
vn -0.8165 -0.5774 -0.0000
vn -0.0000 0.5774 0.8165
vn -0.0000 0.5773 -0.8165
vn -0.0000 -0.5773 -0.8165
vn -0.0000 -0.5774 0.8165
vn -0.0000 0.5774 -0.8165
vn -0.0000 -0.5774 -0.8165
vn -0.0000 0.5773 0.8165
vn -0.0000 -0.5773 0.8165
vn -0.8165 0.5773 -0.0000
vn 0.8165 0.5773 -0.0000
vn 0.8165 -0.5773 -0.0000
vn -0.8165 -0.5773 -0.0000
vn -0.7608 0.6490 -0.0011
vn 0.7604 0.6494 -0.0011
vn 0.7604 -0.6494 -0.0011
vn -0.7608 -0.6490 -0.0011
vn 0.0011 0.6490 0.7608
vn 0.0011 0.6494 -0.7604
vn 0.0011 -0.6494 -0.7604
vn 0.0011 -0.6490 0.7608
vn 0.0011 0.6495 -0.7604
vn 0.0011 -0.6495 -0.7604
vt 1.000000 0.000000
vt 0.333333 0.000000
vt 0.666667 0.000000
vt 0.000000 0.000000
vt 0.000000 1.000000
vt 0.500000 1.000000
vt 0.500000 0.750000
vt 0.000000 0.750000
vt 0.000000 0.250000
vt 0.500000 0.250000
vt 0.500000 0.000000
vt 0.000000 0.500000
vt 0.500000 0.500000
vt 1.000000 1.000000
vt 1.000000 0.750000
vt 1.000000 0.250000
vt 1.000000 0.500000
vt 0.250000 1.000000
vt 0.250000 0.750000
vt 0.250000 0.250000
vt 0.250000 0.000000
vt 0.250000 0.500000
vt 0.750000 1.000000
vt 0.750000 0.750000
vt 0.750000 0.250000
vt 0.750000 0.000000
vt 0.750000 0.500000
vt 0.166667 1.000000
vt 0.166667 0.750000
vt 0.166667 0.250000
vt 0.166667 0.000000
vt 0.166667 0.500000
vt 0.333333 1.000000
vt 0.333333 0.750000
vt 0.333333 0.250000
vt 0.333333 0.500000
vt 0.666667 1.000000
vt 0.666667 0.750000
vt 0.666667 0.250000
vt 0.666667 0.500000
vt 0.833333 1.000000
vt 0.833333 0.750000
vt 0.833333 0.250000
vt 0.833333 0.000000
vt 0.833333 0.500000
vt 0.125000 1.000000
vt 0.125000 0.750000
vt 0.125000 0.250000
vt 0.125000 0.000000
vt 0.125000 0.500000
vt 0.375000 1.000000
vt 0.375000 0.750000
vt 0.375000 0.250000
vt 0.375000 0.000000
vt 0.375000 0.500000
vt 0.625000 1.000000
vt 0.625000 0.750000
vt 0.625000 0.250000
vt 0.625000 0.000000
vt 0.625000 0.500000
vt 0.875000 1.000000
vt 0.875000 0.750000
vt 0.875000 0.250000
vt 0.875000 0.000000
vt 0.875000 0.500000
vt 0.100000 1.000000
vt 0.100000 0.750000
vt 0.100000 0.250000
vt 0.100000 0.000000
vt 0.100000 0.500000
vt 0.200000 1.000000
vt 0.200000 0.750000
vt 0.200000 0.250000
vt 0.200000 0.000000
vt 0.200000 0.500000
vt 0.300000 1.000000
vt 0.300000 0.750000
vt 0.300000 0.250000
vt 0.300000 0.000000
vt 0.300000 0.500000
vt 0.400000 1.000000
vt 0.400000 0.750000
vt 0.400000 0.250000
vt 0.400000 0.000000
vt 0.400000 0.500000
vt 0.600000 1.000000
vt 0.600000 0.750000
vt 0.600000 0.250000
vt 0.600000 0.000000
vt 0.600000 0.500000
vt 0.700000 1.000000
vt 0.700000 0.750000
vt 0.700000 0.250000
vt 0.700000 0.000000
vt 0.700000 0.500000
vt 0.800000 1.000000
vt 0.800000 0.750000
vt 0.800000 0.250000
vt 0.800000 0.000000
vt 0.800000 0.500000
vt 0.900000 1.000000
vt 0.900000 0.750000
vt 0.900000 0.250000
vt 0.900000 0.000000
vt 0.900000 0.500000
vt 0.083333 1.000000
vt 0.083333 0.750000
vt 0.083333 0.250000
vt 0.083333 0.000000
vt 0.083333 0.500000
vt 0.416667 1.000000
vt 0.416667 0.750000
vt 0.416667 0.250000
vt 0.416667 0.000000
vt 0.416667 0.500000
vt 0.583333 1.000000
vt 0.583333 0.750000
vt 0.583333 0.250000
vt 0.583333 0.000000
vt 0.583333 0.500000
vt 0.916667 1.000000
vt 0.916667 0.750000
vt 0.916667 0.250000
vt 0.916667 0.000000
vt 0.916667 0.500000
vt 0.071429 1.000000
vt 0.071429 0.750000
vt 0.071429 0.250000
vt 0.071429 0.000000
vt 0.071429 0.500000
vt 0.142857 1.000000
vt 0.142857 0.750000
vt 0.142857 0.250000
vt 0.142857 0.000000
vt 0.142857 0.500000
vt 0.214286 1.000000
vt 0.214286 0.750000
vt 0.214286 0.250000
vt 0.214286 0.000000
vt 0.214286 0.500000
vt 0.285714 1.000000
vt 0.285714 0.750000
vt 0.285714 0.250000
vt 0.285714 0.000000
vt 0.285714 0.500000
vt 0.357143 1.000000
vt 0.357143 0.750000
vt 0.357143 0.250000
vt 0.357143 0.000000
vt 0.357143 0.500000
vt 0.428571 1.000000
vt 0.428571 0.750000
vt 0.428571 0.250000
vt 0.428571 0.000000
vt 0.428571 0.500000
vt 0.571429 1.000000
vt 0.571429 0.750000
vt 0.571429 0.250000
vt 0.571429 0.000000
vt 0.571429 0.500000
vt 0.642857 1.000000
vt 0.642857 0.750000
vt 0.642857 0.250000
vt 0.642857 0.000000
vt 0.642857 0.500000
vt 0.714286 1.000000
vt 0.714286 0.750000
vt 0.714286 0.250000
vt 0.714286 0.000000
vt 0.714286 0.500000
vt 0.785714 1.000000
vt 0.785714 0.750000
vt 0.785714 0.250000
vt 0.785714 0.000000
vt 0.785714 0.500000
vt 0.857143 1.000000
vt 0.857143 0.750000
vt 0.857143 0.250000
vt 0.857143 0.000000
vt 0.857143 0.500000
vt 0.928571 1.000000
vt 0.928571 0.750000
vt 0.928571 0.250000
vt 0.928571 0.000000
vt 0.928571 0.500000
vt 0.062500 1.000000
vt 0.062500 0.750000
vt 0.062500 0.250000
vt 0.062500 0.000000
vt 0.062500 0.500000
vt 0.187500 1.000000
vt 0.187500 0.750000
vt 0.187500 0.250000
vt 0.187500 0.000000
vt 0.187500 0.500000
vt 0.312500 1.000000
vt 0.312500 0.750000
vt 0.312500 0.250000
vt 0.312500 0.000000
vt 0.312500 0.500000
vt 0.437500 1.000000
vt 0.437500 0.750000
vt 0.437500 0.250000
vt 0.437500 0.000000
vt 0.437500 0.500000
vt 0.562500 1.000000
vt 0.562500 0.750000
vt 0.562500 0.250000
vt 0.562500 0.000000
vt 0.562500 0.500000
vt 0.687500 1.000000
vt 0.687500 0.750000
vt 0.687500 0.250000
vt 0.687500 0.000000
vt 0.687500 0.500000
vt 0.812500 1.000000
vt 0.812500 0.750000
vt 0.812500 0.250000
vt 0.812500 0.000000
vt 0.812500 0.500000
vt 0.937500 1.000000
vt 0.937500 0.750000
vt 0.937500 0.250000
vt 0.937500 0.000000
vt 0.937500 0.500000
vt 0.055556 1.000000
vt 0.055556 0.750000
vt 0.055556 0.250000
vt 0.055556 0.000000
vt 0.055556 0.500000
vt 0.111111 1.000000
vt 0.111111 0.750000
vt 0.111111 0.250000
vt 0.111111 0.000000
vt 0.111111 0.500000
vt 0.222222 1.000000
vt 0.222222 0.750000
vt 0.222222 0.250000
vt 0.222222 0.000000
vt 0.222222 0.500000
vt 0.277778 1.000000
vt 0.277778 0.750000
vt 0.277778 0.250000
vt 0.277778 0.000000
vt 0.277778 0.500000
vt 0.388889 1.000000
vt 0.388889 0.750000
vt 0.388889 0.250000
vt 0.388889 0.000000
vt 0.388889 0.500000
vt 0.444444 1.000000
vt 0.444444 0.750000
vt 0.444444 0.250000
vt 0.444444 0.000000
vt 0.444444 0.500000
vt 0.555556 1.000000
vt 0.555556 0.750000
vt 0.555556 0.250000
vt 0.555556 0.000000
vt 0.555556 0.500000
vt 0.611111 1.000000
vt 0.611111 0.750000
vt 0.611111 0.250000
vt 0.611111 0.000000
vt 0.611111 0.500000
vt 0.722222 1.000000
vt 0.722222 0.750000
vt 0.722222 0.250000
vt 0.722222 0.000000
vt 0.722222 0.500000
vt 0.777778 1.000000
vt 0.777778 0.750000
vt 0.777778 0.250000
vt 0.777778 0.000000
vt 0.777778 0.500000
vt 0.888889 1.000000
vt 0.888889 0.750000
vt 0.888889 0.250000
vt 0.888889 0.000000
vt 0.888889 0.500000
vt 0.944444 1.000000
vt 0.944444 0.750000
vt 0.944444 0.250000
vt 0.944444 0.000000
vt 0.944444 0.500000
s 0
f 4/1/1 2/2/1 3/3/1
f 1/4/1 2/2/1 4/1/1
f 6/2/2 8/1/2 7/3/2
f 5/4/2 8/1/2 6/2/2
f 12/1/1 10/2/1 11/3/1
f 9/4/1 10/2/1 12/1/1
f 14/2/2 16/1/2 15/3/2
f 13/4/2 16/1/2 14/2/2
f 20/1/1 18/2/1 19/3/1
f 17/4/1 18/2/1 20/1/1
f 22/2/2 24/1/2 23/3/2
f 21/4/2 24/1/2 22/2/2
f 28/1/1 26/2/1 27/3/1
f 25/4/1 26/2/1 28/1/1
f 30/2/2 32/1/2 31/3/2
f 29/4/2 32/1/2 30/2/2
f 36/1/1 34/2/1 35/3/1
f 33/4/1 34/2/1 36/1/1
f 38/2/2 40/1/2 39/3/2
f 37/4/2 40/1/2 38/2/2
f 44/1/1 42/2/1 43/3/1
f 41/4/1 42/2/1 44/1/1
f 46/2/2 48/1/2 47/3/2
f 45/4/2 48/1/2 46/2/2
f 52/1/1 50/2/1 51/3/1
f 49/4/1 50/2/1 52/1/1
f 54/2/2 56/1/2 55/3/2
f 53/4/2 56/1/2 54/2/2
f 60/1/1 58/2/1 59/3/1
f 57/4/1 58/2/1 60/1/1
f 62/2/2 64/1/2 63/3/2
f 61/4/2 64/1/2 62/2/2
f 68/1/1 66/2/1 67/3/1
f 65/4/1 66/2/1 68/1/1
f 70/2/2 72/1/2 71/3/2
f 69/4/2 72/1/2 70/2/2
f 76/1/3 74/2/3 75/3/3
f 76/1/3 73/4/3 74/2/3
f 78/2/4 80/1/4 79/3/4
f 77/4/4 80/1/4 78/2/4
f 84/1/3 82/2/3 83/3/3
f 84/1/3 81/4/3 82/2/3
f 86/2/4 88/1/4 87/3/4
f 85/4/4 88/1/4 86/2/4
f 92/1/3 90/2/3 91/3/3
f 92/1/3 89/4/3 90/2/3
f 94/2/4 96/1/4 95/3/4
f 93/4/4 96/1/4 94/2/4
f 100/1/3 98/2/3 99/3/3
f 100/1/3 97/4/3 98/2/3
f 102/2/4 104/1/4 103/3/4
f 101/4/4 104/1/4 102/2/4
f 108/1/3 106/2/3 107/3/3
f 108/1/3 105/4/3 106/2/3
f 110/2/4 112/1/4 111/3/4
f 109/4/4 112/1/4 110/2/4
f 116/1/3 114/2/3 115/3/3
f 116/1/3 113/4/3 114/2/3
f 118/2/4 120/1/4 119/3/4
f 117/4/4 120/1/4 118/2/4
f 124/1/3 122/2/3 123/3/3
f 124/1/3 121/4/3 122/2/3
f 126/2/4 128/1/4 127/3/4
f 125/4/4 128/1/4 126/2/4
f 132/1/3 130/2/3 131/3/3
f 132/1/3 129/4/3 130/2/3
f 134/2/4 136/1/4 135/3/4
f 133/4/4 136/1/4 134/2/4
f 140/1/3 138/2/3 139/3/3
f 140/1/3 137/4/3 138/2/3
f 142/2/4 144/1/4 143/3/4
f 141/4/4 144/1/4 142/2/4
f 145/5/5 149/6/5 152/7/5 148/8/5
f 146/9/6 150/10/6 149/11/6 145/4/6
f 147/12/7 151/13/7 150/10/7 146/9/7
f 148/8/8 152/7/8 151/13/8 147/12/8
f 149/6/9 153/14/9 156/15/9 152/7/9
f 150/10/10 154/16/10 153/1/10 149/11/10
f 151/13/11 155/17/11 154/16/11 150/10/11
f 152/7/12 156/15/12 155/17/12 151/13/12
f 157/5/5 161/18/5 164/19/5 160/8/5
f 158/9/6 162/20/6 161/21/6 157/4/6
f 159/12/7 163/22/7 162/20/7 158/9/7
f 160/8/8 164/19/8 163/22/8 159/12/8
f 161/18/13 165/6/13 168/7/13 164/19/13
f 162/20/14 166/10/14 165/11/14 161/21/14
f 163/22/15 167/13/15 166/10/15 162/20/15
f 164/19/16 168/7/16 167/13/16 163/22/16
f 165/6/17 169/23/17 172/24/17 168/7/17
f 166/10/18 170/25/18 169/26/18 165/11/18
f 167/13/19 171/27/19 170/25/19 166/10/19
f 168/7/20 172/24/20 171/27/20 167/13/20
f 169/23/9 173/14/9 176/15/9 172/24/9
f 170/25/10 174/16/10 173/1/10 169/26/10
f 171/27/11 175/17/11 174/16/11 170/25/11
f 172/24/12 176/15/12 175/17/12 171/27/12
f 177/5/5 181/28/5 184/29/5 180/8/5
f 178/9/6 182/30/6 181/31/6 177/4/6
f 179/12/7 183/32/7 182/30/7 178/9/7
f 180/8/8 184/29/8 183/32/8 179/12/8
f 181/28/13 185/33/13 188/34/13 184/29/13
f 182/30/14 186/35/14 185/2/14 181/31/14
f 183/32/15 187/36/15 186/35/15 182/30/15
f 184/29/16 188/34/16 187/36/16 183/32/16
f 185/33/17 189/6/17 192/7/17 188/34/17
f 186/35/21 190/10/21 189/11/21 185/2/21
f 187/36/22 191/13/22 190/10/22 186/35/22
f 188/34/20 192/7/20 191/13/20 187/36/20
f 189/6/13 193/37/13 196/38/13 192/7/13
f 190/10/14 194/39/14 193/3/14 189/11/14
f 191/13/15 195/40/15 194/39/15 190/10/15
f 192/7/16 196/38/16 195/40/16 191/13/16
f 193/37/17 197/41/17 200/42/17 196/38/17
f 194/39/18 198/43/18 197/44/18 193/3/18
f 195/40/19 199/45/19 198/43/19 194/39/19
f 196/38/20 200/42/20 199/45/20 195/40/20
f 197/41/9 201/14/9 204/15/9 200/42/9
f 198/43/10 202/16/10 201/1/10 197/44/10
f 199/45/11 203/17/11 202/16/11 198/43/11
f 200/42/12 204/15/12 203/17/12 199/45/12
f 205/5/5 209/46/5 212/47/5 208/8/5
f 206/9/6 210/48/6 209/49/6 205/4/6
f 207/12/7 211/50/7 210/48/7 206/9/7
f 208/8/8 212/47/8 211/50/8 207/12/8
f 209/46/13 213/18/13 216/19/13 212/47/13
f 210/48/14 214/20/14 213/21/14 209/49/14
f 211/50/15 215/22/15 214/20/15 210/48/15
f 212/47/16 216/19/16 215/22/16 211/50/16
f 213/18/23 217/51/23 220/52/23 216/19/23
f 214/20/21 218/53/21 217/54/21 213/21/21
f 215/22/22 219/55/22 218/53/22 214/20/22
f 216/19/24 220/52/24 219/55/24 215/22/24
f 217/51/13 221/6/13 224/7/13 220/52/13
f 218/53/14 222/10/14 221/11/14 217/54/14
f 219/55/15 223/13/15 222/10/15 218/53/15
f 220/52/16 224/7/16 223/13/16 219/55/16
f 221/6/17 225/56/17 228/57/17 224/7/17
f 222/10/18 226/58/18 225/59/18 221/11/18
f 223/13/19 227/60/19 226/58/19 222/10/19
f 224/7/20 228/57/20 227/60/20 223/13/20
f 225/56/25 229/23/25 232/24/25 228/57/25
f 226/58/26 230/25/26 229/26/26 225/59/26
f 227/60/27 231/27/27 230/25/27 226/58/27
f 228/57/28 232/24/28 231/27/28 227/60/28
f 229/23/23 233/61/23 236/62/23 232/24/23
f 230/25/21 234/63/21 233/64/21 229/26/21
f 231/27/22 235/65/22 234/63/22 230/25/22
f 232/24/24 236/62/24 235/65/24 231/27/24
f 233/61/9 237/14/9 240/15/9 236/62/9
f 234/63/10 238/16/10 237/1/10 233/64/10
f 235/65/11 239/17/11 238/16/11 234/63/11
f 236/62/12 240/15/12 239/17/12 235/65/12
f 241/5/5 245/66/5 248/67/5 244/8/5
f 242/9/6 246/68/6 245/69/6 241/4/6
f 243/12/7 247/70/7 246/68/7 242/9/7
f 244/8/8 248/67/8 247/70/8 243/12/8
f 245/66/13 249/71/13 252/72/13 248/67/13
f 246/68/14 250/73/14 249/74/14 245/69/14
f 247/70/15 251/75/15 250/73/15 246/68/15
f 248/67/16 252/72/16 251/75/16 247/70/16
f 249/71/23 253/76/23 256/77/23 252/72/23
f 250/73/21 254/78/21 253/79/21 249/74/21
f 251/75/22 255/80/22 254/78/22 250/73/22
f 252/72/24 256/77/24 255/80/24 251/75/24
f 253/76/13 257/81/13 260/82/13 256/77/13
f 254/78/14 258/83/14 257/84/14 253/79/14
f 255/80/15 259/85/15 258/83/15 254/78/15
f 256/77/16 260/82/16 259/85/16 255/80/16
f 257/81/17 261/6/17 264/7/17 260/82/17
f 258/83/18 262/10/18 261/11/18 257/84/18
f 259/85/19 263/13/19 262/10/19 258/83/19
f 260/82/20 264/7/20 263/13/20 259/85/20
f 261/6/25 265/86/25 268/87/25 264/7/25
f 262/10/26 266/88/26 265/89/26 261/11/26
f 263/13/27 267/90/27 266/88/27 262/10/27
f 264/7/28 268/87/28 267/90/28 263/13/28
f 265/86/17 269/91/17 272/92/17 268/87/17
f 266/88/21 270/93/21 269/94/21 265/89/21
f 267/90/22 271/95/22 270/93/22 266/88/22
f 268/87/20 272/92/20 271/95/20 267/90/20
f 269/91/25 273/96/25 276/97/25 272/92/25
f 270/93/26 274/98/26 273/99/26 269/94/26
f 271/95/27 275/100/27 274/98/27 270/93/27
f 272/92/28 276/97/28 275/100/28 271/95/28
f 273/96/17 277/101/17 280/102/17 276/97/17
f 274/98/18 278/103/18 277/104/18 273/99/18
f 275/100/19 279/105/19 278/103/19 274/98/19
f 276/97/20 280/102/20 279/105/20 275/100/20
f 277/101/9 281/14/9 284/15/9 280/102/9
f 278/103/10 282/16/10 281/1/10 277/104/10
f 279/105/11 283/17/11 282/16/11 278/103/11
f 280/102/12 284/15/12 283/17/12 279/105/12
f 285/5/5 289/106/5 292/107/5 288/8/5
f 286/9/6 290/108/6 289/109/6 285/4/6
f 287/12/7 291/110/7 290/108/7 286/9/7
f 288/8/8 292/107/8 291/110/8 287/12/8
f 289/106/13 293/28/13 296/29/13 292/107/13
f 290/108/14 294/30/14 293/31/14 289/109/14
f 291/110/15 295/32/15 294/30/15 290/108/15
f 292/107/16 296/29/16 295/32/16 291/110/16
f 293/28/17 297/18/17 300/19/17 296/29/17
f 294/30/21 298/20/21 297/21/21 293/31/21
f 295/32/22 299/22/22 298/20/22 294/30/22
f 296/29/20 300/19/20 299/22/20 295/32/20
f 297/18/13 301/33/13 304/34/13 300/19/13
f 298/20/14 302/35/14 301/2/14 297/21/14
f 299/22/15 303/36/15 302/35/15 298/20/15
f 300/19/16 304/34/16 303/36/16 299/22/16
f 301/33/23 305/111/23 308/112/23 304/34/23
f 302/35/18 306/113/18 305/114/18 301/2/18
f 303/36/22 307/115/22 306/113/22 302/35/22
f 304/34/24 308/112/24 307/115/24 303/36/24
f 305/111/25 309/6/25 312/7/25 308/112/25
f 306/113/26 310/10/26 309/11/26 305/114/26
f 307/115/27 311/13/27 310/10/27 306/113/27
f 308/112/28 312/7/28 311/13/28 307/115/28
f 309/6/17 313/116/17 316/117/17 312/7/17
f 310/10/18 314/118/18 313/119/18 309/11/18
f 311/13/19 315/120/19 314/118/19 310/10/19
f 312/7/20 316/117/20 315/120/20 311/13/20
f 313/116/25 317/37/25 320/38/25 316/117/25
f 314/118/26 318/39/26 317/3/26 313/119/26
f 315/120/27 319/40/27 318/39/27 314/118/27
f 316/117/28 320/38/28 319/40/28 315/120/28
f 317/37/17 321/23/17 324/24/17 320/38/17
f 318/39/21 322/25/21 321/26/21 317/3/21
f 319/40/22 323/27/22 322/25/22 318/39/22
f 320/38/20 324/24/20 323/27/20 319/40/20
f 321/23/13 325/41/13 328/42/13 324/24/13
f 322/25/14 326/43/14 325/44/14 321/26/14
f 323/27/15 327/45/15 326/43/15 322/25/15
f 324/24/28 328/42/28 327/45/28 323/27/28
f 325/41/17 329/121/17 332/122/17 328/42/17
f 326/43/18 330/123/18 329/124/18 325/44/18
f 327/45/19 331/125/19 330/123/19 326/43/19
f 328/42/20 332/122/20 331/125/20 327/45/20
f 329/121/9 333/14/9 336/15/9 332/122/9
f 330/123/10 334/16/10 333/1/10 329/124/10
f 331/125/11 335/17/11 334/16/11 330/123/11
f 332/122/12 336/15/12 335/17/12 331/125/12
f 337/5/5 341/126/5 344/127/5 340/8/5
f 338/9/6 342/128/6 341/129/6 337/4/6
f 339/12/7 343/130/7 342/128/7 338/9/7
f 340/8/8 344/127/8 343/130/8 339/12/8
f 341/126/13 345/131/13 348/132/13 344/127/13
f 342/128/14 346/133/14 345/134/14 341/129/14
f 343/130/15 347/135/15 346/133/15 342/128/15
f 344/127/16 348/132/16 347/135/16 343/130/16
f 345/131/17 349/136/17 352/137/17 348/132/17
f 346/133/21 350/138/21 349/139/21 345/134/21
f 347/135/22 351/140/22 350/138/22 346/133/22
f 348/132/24 352/137/24 351/140/24 347/135/24
f 349/136/13 353/141/13 356/142/13 352/137/13
f 350/138/14 354/143/14 353/144/14 349/139/14
f 351/140/15 355/145/15 354/143/15 350/138/15
f 352/137/16 356/142/16 355/145/16 351/140/16
f 353/141/17 357/146/17 360/147/17 356/142/17
f 354/143/21 358/148/21 357/149/21 353/144/21
f 355/145/22 359/150/22 358/148/22 354/143/22
f 356/142/20 360/147/20 359/150/20 355/145/20
f 357/146/25 361/151/25 364/152/25 360/147/25
f 358/148/26 362/153/26 361/154/26 357/149/26
f 359/150/27 363/155/27 362/153/27 358/148/27
f 360/147/28 364/152/28 363/155/28 359/150/28
f 361/151/17 365/6/17 368/7/17 364/152/17
f 362/153/21 366/10/21 365/11/21 361/154/21
f 363/155/22 367/13/22 366/10/22 362/153/22
f 364/152/20 368/7/20 367/13/20 363/155/20
f 365/6/25 369/156/25 372/157/25 368/7/25
f 366/10/26 370/158/26 369/159/26 365/11/26
f 367/13/27 371/160/27 370/158/27 366/10/27
f 368/7/28 372/157/28 371/160/28 367/13/28
f 369/156/23 373/161/23 376/162/23 372/157/23
f 370/158/21 374/163/21 373/164/21 369/159/21
f 371/160/22 375/165/22 374/163/22 370/158/22
f 372/157/24 376/162/24 375/165/24 371/160/24
f 373/161/13 377/166/13 380/167/13 376/162/13
f 374/163/14 378/168/14 377/169/14 373/164/14
f 375/165/15 379/170/15 378/168/15 374/163/15
f 376/162/16 380/167/16 379/170/16 375/165/16
f 377/166/17 381/171/17 384/172/17 380/167/17
f 378/168/18 382/173/18 381/174/18 377/169/18
f 379/170/19 383/175/19 382/173/19 378/168/19
f 380/167/20 384/172/20 383/175/20 379/170/20
f 381/171/25 385/176/25 388/177/25 384/172/25
f 382/173/26 386/178/26 385/179/26 381/174/26
f 383/175/27 387/180/27 386/178/27 382/173/27
f 384/172/28 388/177/28 387/180/28 383/175/28
f 385/176/17 389/181/17 392/182/17 388/177/17
f 386/178/18 390/183/18 389/184/18 385/179/18
f 387/180/19 391/185/19 390/183/19 386/178/19
f 388/177/20 392/182/20 391/185/20 387/180/20
f 389/181/9 393/14/9 396/15/9 392/182/9
f 390/183/10 394/16/10 393/1/10 389/184/10
f 391/185/11 395/17/11 394/16/11 390/183/11
f 392/182/12 396/15/12 395/17/12 391/185/12
f 397/5/5 401/186/5 404/187/5 400/8/5
f 398/9/6 402/188/6 401/189/6 397/4/6
f 399/12/7 403/190/7 402/188/7 398/9/7
f 400/8/8 404/187/8 403/190/8 399/12/8
f 401/186/13 405/46/13 408/47/13 404/187/13
f 402/188/14 406/48/14 405/49/14 401/189/14
f 403/190/15 407/50/15 406/48/15 402/188/15
f 404/187/16 408/47/16 407/50/16 403/190/16
f 405/46/17 409/191/17 412/192/17 408/47/17
f 406/48/18 410/193/18 409/194/18 405/49/18
f 407/50/19 411/195/19 410/193/19 406/48/19
f 408/47/20 412/192/20 411/195/20 407/50/20
f 409/191/13 413/18/13 416/19/13 412/192/13
f 410/193/14 414/20/14 413/21/14 409/194/14
f 411/195/15 415/22/15 414/20/15 410/193/15
f 412/192/16 416/19/16 415/22/16 411/195/16
f 413/18/17 417/196/17 420/197/17 416/19/17
f 414/20/18 418/198/18 417/199/18 413/21/18
f 415/22/22 419/200/22 418/198/22 414/20/22
f 416/19/20 420/197/20 419/200/20 415/22/20
f 417/196/25 421/51/25 424/52/25 420/197/25
f 418/198/26 422/53/26 421/54/26 417/199/26
f 419/200/27 423/55/27 422/53/27 418/198/27
f 420/197/28 424/52/28 423/55/28 419/200/28
f 421/51/17 425/201/17 428/202/17 424/52/17
f 422/53/21 426/203/21 425/204/21 421/54/21
f 423/55/22 427/205/22 426/203/22 422/53/22
f 424/52/20 428/202/20 427/205/20 423/55/20
f 425/201/25 429/6/25 432/7/25 428/202/25
f 426/203/26 430/10/26 429/11/26 425/204/26
f 427/205/27 431/13/27 430/10/27 426/203/27
f 428/202/28 432/7/28 431/13/28 427/205/28
f 429/6/17 433/206/17 436/207/17 432/7/17
f 430/10/18 434/208/18 433/209/18 429/11/18
f 431/13/22 435/210/22 434/208/22 430/10/22
f 432/7/24 436/207/24 435/210/24 431/13/24
f 433/206/13 437/56/13 440/57/13 436/207/13
f 434/208/26 438/58/26 437/59/26 433/209/26
f 435/210/15 439/60/15 438/58/15 434/208/15
f 436/207/16 440/57/16 439/60/16 435/210/16
f 437/56/23 441/211/23 444/212/23 440/57/23
f 438/58/18 442/213/18 441/214/18 437/59/18
f 439/60/19 443/215/19 442/213/19 438/58/19
f 440/57/24 444/212/24 443/215/24 439/60/24
f 441/211/25 445/23/25 448/24/25 444/212/25
f 442/213/26 446/25/26 445/26/26 441/214/26
f 443/215/27 447/27/27 446/25/27 442/213/27
f 444/212/28 448/24/28 447/27/28 443/215/28
f 445/23/17 449/216/17 452/217/17 448/24/17
f 446/25/21 450/218/21 449/219/21 445/26/21
f 447/27/22 451/220/22 450/218/22 446/25/22
f 448/24/20 452/217/20 451/220/20 447/27/20
f 449/216/25 453/61/25 456/62/25 452/217/25
f 450/218/26 454/63/26 453/64/26 449/219/26
f 451/220/27 455/65/27 454/63/27 450/218/27
f 452/217/28 456/62/28 455/65/28 451/220/28
f 453/61/23 457/221/23 460/222/23 456/62/23
f 454/63/21 458/223/21 457/224/21 453/64/21
f 455/65/22 459/225/22 458/223/22 454/63/22
f 456/62/24 460/222/24 459/225/24 455/65/24
f 457/221/9 461/14/9 464/15/9 460/222/9
f 458/223/10 462/16/10 461/1/10 457/224/10
f 459/225/11 463/17/11 462/16/11 458/223/11
f 460/222/12 464/15/12 463/17/12 459/225/12
f 465/5/5 469/226/5 472/227/5 468/8/5
f 466/9/6 470/228/6 469/229/6 465/4/6
f 467/12/7 471/230/7 470/228/7 466/9/7
f 468/8/8 472/227/8 471/230/8 467/12/8
f 469/226/13 473/231/13 476/232/13 472/227/13
f 470/228/14 474/233/14 473/234/14 469/229/14
f 471/230/15 475/235/15 474/233/15 470/228/15
f 472/227/16 476/232/16 475/235/16 471/230/16
f 473/231/17 477/28/17 480/29/17 476/232/17
f 474/233/21 478/30/21 477/31/21 473/234/21
f 475/235/22 479/32/22 478/30/22 474/233/22
f 476/232/20 480/29/20 479/32/20 475/235/20
f 477/28/13 481/236/13 484/237/13 480/29/13
f 478/30/14 482/238/14 481/239/14 477/31/14
f 479/32/15 483/240/15 482/238/15 478/30/15
f 480/29/16 484/237/16 483/240/16 479/32/16
f 481/236/17 485/241/17 488/242/17 484/237/17
f 482/238/18 486/243/18 485/244/18 481/239/18
f 483/240/19 487/245/19 486/243/19 482/238/19
f 484/237/20 488/242/20 487/245/20 483/240/20
f 485/241/25 489/33/25 492/34/25 488/242/25
f 486/243/26 490/35/26 489/2/26 485/244/26
f 487/245/27 491/36/27 490/35/27 486/243/27
f 488/242/28 492/34/28 491/36/28 487/245/28
f 489/33/17 493/246/17 496/247/17 492/34/17
f 490/35/21 494/248/21 493/249/21 489/2/21
f 491/36/22 495/250/22 494/248/22 490/35/22
f 492/34/20 496/247/20 495/250/20 491/36/20
f 493/246/25 497/251/25 500/252/25 496/247/25
f 494/248/26 498/253/26 497/254/26 493/249/26
f 495/250/27 499/255/27 498/253/27 494/248/27
f 496/247/28 500/252/28 499/255/28 495/250/28
f 497/251/17 501/6/17 504/7/17 500/252/17
f 498/253/21 502/10/21 501/11/21 497/254/21
f 499/255/22 503/13/22 502/10/22 498/253/22
f 500/252/20 504/7/20 503/13/20 499/255/20
f 501/6/13 505/256/13 508/257/13 504/7/13
f 502/10/14 506/258/14 505/259/14 501/11/14
f 503/13/15 507/260/15 506/258/15 502/10/15
f 504/7/16 508/257/16 507/260/16 503/13/16
f 505/256/23 509/261/23 512/262/23 508/257/23
f 506/258/21 510/263/21 509/264/21 505/259/21
f 507/260/22 511/265/22 510/263/22 506/258/22
f 508/257/24 512/262/24 511/265/24 507/260/24
f 509/261/25 513/37/25 516/38/25 512/262/25
f 510/263/26 514/39/26 513/3/26 509/264/26
f 511/265/27 515/40/27 514/39/27 510/263/27
f 512/262/28 516/38/28 515/40/28 511/265/28
f 513/37/23 517/266/23 520/267/23 516/38/23
f 514/39/18 518/268/18 517/269/18 513/3/18
f 515/40/19 519/270/19 518/268/19 514/39/19
f 516/38/24 520/267/24 519/270/24 515/40/24
f 517/266/25 521/271/25 524/272/25 520/267/25
f 518/268/26 522/273/26 521/274/26 517/269/26
f 519/270/27 523/275/27 522/273/27 518/268/27
f 520/267/28 524/272/28 523/275/28 519/270/28
f 521/271/17 525/41/17 528/42/17 524/272/17
f 522/273/21 526/43/21 525/44/21 521/274/21
f 523/275/22 527/45/22 526/43/22 522/273/22
f 524/272/20 528/42/20 527/45/20 523/275/20
f 525/41/13 529/276/13 532/277/13 528/42/13
f 526/43/14 530/278/14 529/279/14 525/44/14
f 527/45/15 531/280/15 530/278/15 526/43/15
f 528/42/16 532/277/16 531/280/16 527/45/16
f 529/276/17 533/281/17 536/282/17 532/277/17
f 530/278/18 534/283/18 533/284/18 529/279/18
f 531/280/19 535/285/19 534/283/19 530/278/19
f 532/277/20 536/282/20 535/285/20 531/280/20
f 533/281/9 537/14/9 540/15/9 536/282/9
f 534/283/10 538/16/10 537/1/10 533/284/10
f 535/285/11 539/17/11 538/16/11 534/283/11
f 536/282/12 540/15/12 539/17/12 535/285/12
f 541/5/29 545/226/29 548/227/29 544/8/29
f 542/9/30 546/228/30 545/229/30 541/4/30
f 543/12/31 547/230/31 546/228/31 542/9/31
f 544/8/32 548/227/32 547/230/32 543/12/32
f 545/226/17 549/231/17 552/232/17 548/227/17
f 546/228/21 550/233/21 549/234/21 545/229/21
f 547/230/22 551/235/22 550/233/22 546/228/22
f 548/227/20 552/232/20 551/235/20 547/230/20
f 549/231/13 553/28/13 556/29/13 552/232/13
f 550/233/14 554/30/14 553/31/14 549/234/14
f 551/235/15 555/32/15 554/30/15 550/233/15
f 552/232/16 556/29/16 555/32/16 551/235/16
f 553/28/17 557/236/17 560/237/17 556/29/17
f 554/30/21 558/238/21 557/239/21 553/31/21
f 555/32/22 559/240/22 558/238/22 554/30/22
f 556/29/20 560/237/20 559/240/20 555/32/20
f 557/236/25 561/241/25 564/242/25 560/237/25
f 558/238/26 562/243/26 561/244/26 557/239/26
f 559/240/27 563/245/27 562/243/27 558/238/27
f 560/237/28 564/242/28 563/245/28 559/240/28
f 561/241/23 565/33/23 568/34/23 564/242/23
f 562/243/21 566/35/21 565/2/21 561/244/21
f 563/245/22 567/36/22 566/35/22 562/243/22
f 564/242/24 568/34/24 567/36/24 563/245/24
f 565/33/25 569/246/25 572/247/25 568/34/25
f 566/35/26 570/248/26 569/249/26 565/2/26
f 567/36/27 571/250/27 570/248/27 566/35/27
f 568/34/28 572/247/28 571/250/28 567/36/28
f 569/246/17 573/251/17 576/252/17 572/247/17
f 570/248/18 574/253/18 573/254/18 569/249/18
f 571/250/19 575/255/19 574/253/19 570/248/19
f 572/247/20 576/252/20 575/255/20 571/250/20
f 573/251/13 577/6/13 580/7/13 576/252/13
f 574/253/14 578/10/14 577/11/14 573/254/14
f 575/255/15 579/13/15 578/10/15 574/253/15
f 576/252/16 580/7/16 579/13/16 575/255/16
f 577/6/17 581/256/17 584/257/17 580/7/17
f 578/10/21 582/258/21 581/259/21 577/11/21
f 579/13/22 583/260/22 582/258/22 578/10/22
f 580/7/20 584/257/20 583/260/20 579/13/20
f 581/256/25 585/261/25 588/262/25 584/257/25
f 582/258/26 586/263/26 585/264/26 581/259/26
f 583/260/27 587/265/27 586/263/27 582/258/27
f 584/257/28 588/262/28 587/265/28 583/260/28
f 585/261/17 589/37/17 592/38/17 588/262/17
f 586/263/21 590/39/21 589/3/21 585/264/21
f 587/265/22 591/40/22 590/39/22 586/263/22
f 588/262/20 592/38/20 591/40/20 587/265/20
f 589/37/25 593/266/25 596/267/25 592/38/25
f 590/39/26 594/268/26 593/269/26 589/3/26
f 591/40/27 595/270/27 594/268/27 590/39/27
f 592/38/28 596/267/28 595/270/28 591/40/28
f 593/266/23 597/271/23 600/272/23 596/267/23
f 594/268/21 598/273/21 597/274/21 593/269/21
f 595/270/22 599/275/22 598/273/22 594/268/22
f 596/267/24 600/272/24 599/275/24 595/270/24
f 597/271/13 601/41/13 604/42/13 600/272/13
f 598/273/14 602/43/14 601/44/14 597/274/14
f 599/275/15 603/45/15 602/43/15 598/273/15
f 600/272/16 604/42/16 603/45/16 599/275/16
f 601/41/17 605/276/17 608/277/17 604/42/17
f 602/43/21 606/278/21 605/279/21 601/44/21
f 603/45/22 607/280/22 606/278/22 602/43/22
f 604/42/20 608/277/20 607/280/20 603/45/20
f 605/276/13 609/281/13 612/282/13 608/277/13
f 606/278/14 610/283/14 609/284/14 605/279/14
f 607/280/15 611/285/15 610/283/15 606/278/15
f 608/277/16 612/282/16 611/285/16 607/280/16
f 609/281/33 613/14/33 616/15/33 612/282/33
f 610/283/34 614/16/34 613/1/34 609/284/34
f 611/285/35 615/17/35 614/16/35 610/283/35
f 612/282/36 616/15/36 615/17/36 611/285/36
f 617/5/29 621/186/29 624/187/29 620/8/29
f 618/9/30 622/188/30 621/189/30 617/4/30
f 619/12/31 623/190/31 622/188/31 618/9/31
f 620/8/32 624/187/32 623/190/32 619/12/32
f 621/186/17 625/46/17 628/47/17 624/187/17
f 622/188/18 626/48/18 625/49/18 621/189/18
f 623/190/19 627/50/19 626/48/19 622/188/19
f 624/187/20 628/47/20 627/50/20 623/190/20
f 625/46/25 629/191/25 632/192/25 628/47/25
f 626/48/26 630/193/26 629/194/26 625/49/26
f 627/50/27 631/195/27 630/193/27 626/48/27
f 628/47/28 632/192/28 631/195/28 627/50/28
f 629/191/17 633/18/17 636/19/17 632/192/17
f 630/193/21 634/20/21 633/21/21 629/194/21
f 631/195/22 635/22/22 634/20/22 630/193/22
f 632/192/20 636/19/20 635/22/20 631/195/20
f 633/18/25 637/196/25 640/197/25 636/19/25
f 634/20/26 638/198/26 637/199/26 633/21/26
f 635/22/27 639/200/27 638/198/27 634/20/27
f 636/19/28 640/197/28 639/200/28 635/22/28
f 637/196/17 641/51/17 644/52/17 640/197/17
f 638/198/18 642/53/18 641/54/18 637/199/18
f 639/200/19 643/55/19 642/53/19 638/198/19
f 640/197/20 644/52/20 643/55/20 639/200/20
f 641/51/13 645/201/13 648/202/13 644/52/13
f 642/53/14 646/203/14 645/204/14 641/54/14
f 643/55/15 647/205/15 646/203/15 642/53/15
f 644/52/16 648/202/16 647/205/16 643/55/16
f 645/201/17 649/6/17 652/7/17 648/202/17
f 646/203/21 650/10/21 649/11/21 645/204/21
f 647/205/22 651/13/22 650/10/22 646/203/22
f 648/202/20 652/7/20 651/13/20 647/205/20
f 649/6/25 653/206/25 656/207/25 652/7/25
f 650/10/26 654/208/26 653/209/26 649/11/26
f 651/13/27 655/210/27 654/208/27 650/10/27
f 652/7/28 656/207/28 655/210/28 651/13/28
f 653/206/17 657/56/17 660/57/17 656/207/17
f 654/208/21 658/58/21 657/59/21 653/209/21
f 655/210/22 659/60/22 658/58/22 654/208/22
f 656/207/20 660/57/20 659/60/20 655/210/20
f 657/56/25 661/211/25 664/212/25 660/57/25
f 658/58/26 662/213/26 661/214/26 657/59/26
f 659/60/27 663/215/27 662/213/27 658/58/27
f 660/57/28 664/212/28 663/215/28 659/60/28
f 661/211/23 665/23/23 668/24/23 664/212/23
f 662/213/21 666/25/21 665/26/21 661/214/21
f 663/215/22 667/27/22 666/25/22 662/213/22
f 664/212/24 668/24/24 667/27/24 663/215/24
f 665/23/13 669/216/13 672/217/13 668/24/13
f 666/25/14 670/218/14 669/219/14 665/26/14
f 667/27/15 671/220/15 670/218/15 666/25/15
f 668/24/16 672/217/16 671/220/16 667/27/16
f 669/216/23 673/61/23 676/62/23 672/217/23
f 670/218/18 674/63/18 673/64/18 669/219/18
f 671/220/19 675/65/19 674/63/19 670/218/19
f 672/217/24 676/62/24 675/65/24 671/220/24
f 673/61/13 677/221/13 680/222/13 676/62/13
f 674/63/14 678/223/14 677/224/14 673/64/14
f 675/65/15 679/225/15 678/223/15 674/63/15
f 676/62/16 680/222/16 679/225/16 675/65/16
f 677/221/33 681/14/33 684/15/33 680/222/33
f 678/223/34 682/16/34 681/1/34 677/224/34
f 679/225/35 683/17/35 682/16/35 678/223/35
f 680/222/36 684/15/36 683/17/36 679/225/36
f 685/5/29 689/126/29 692/127/29 688/8/29
f 686/9/30 690/128/30 689/129/30 685/4/30
f 687/12/31 691/130/31 690/128/31 686/9/31
f 688/8/32 692/127/32 691/130/32 687/12/32
f 689/126/23 693/131/23 696/132/23 692/127/23
f 690/128/21 694/133/21 693/134/21 689/129/21
f 691/130/22 695/135/22 694/133/22 690/128/22
f 692/127/24 696/132/24 695/135/24 691/130/24
f 693/131/25 697/136/25 700/137/25 696/132/25
f 694/133/26 698/138/26 697/139/26 693/134/26
f 695/135/27 699/140/27 698/138/27 694/133/27
f 696/132/28 700/137/28 699/140/28 695/135/28
f 697/136/23 701/141/23 704/142/23 700/137/23
f 698/138/21 702/143/21 701/144/21 697/139/21
f 699/140/22 703/145/22 702/143/22 698/138/22
f 700/137/24 704/142/24 703/145/24 699/140/24
f 701/141/13 705/146/13 708/147/13 704/142/13
f 702/143/14 706/148/14 705/149/14 701/144/14
f 703/145/15 707/150/15 706/148/15 702/143/15
f 704/142/16 708/147/16 707/150/16 703/145/16
f 705/146/23 709/151/23 712/152/23 708/147/23
f 706/148/18 710/153/18 709/154/18 705/149/18
f 707/150/19 711/155/19 710/153/19 706/148/19
f 708/147/24 712/152/24 711/155/24 707/150/24
f 709/151/25 713/6/25 716/7/25 712/152/25
f 710/153/26 714/10/26 713/11/26 709/154/26
f 711/155/27 715/13/27 714/10/27 710/153/27
f 712/152/28 716/7/28 715/13/28 711/155/28
f 713/6/17 717/156/17 720/157/17 716/7/17
f 714/10/21 718/158/21 717/159/21 713/11/21
f 715/13/22 719/160/22 718/158/22 714/10/22
f 716/7/20 720/157/20 719/160/20 715/13/20
f 717/156/25 721/161/25 724/162/25 720/157/25
f 718/158/26 722/163/26 721/164/26 717/159/26
f 719/160/27 723/165/27 722/163/27 718/158/27
f 720/157/28 724/162/28 723/165/28 719/160/28
f 721/161/17 725/166/17 728/167/17 724/162/17
f 722/163/21 726/168/21 725/169/21 721/164/21
f 723/165/22 727/170/22 726/168/22 722/163/22
f 724/162/20 728/167/20 727/170/20 723/165/20
f 725/166/13 729/171/13 732/172/13 728/167/13
f 726/168/14 730/173/14 729/174/14 725/169/14
f 727/170/15 731/175/15 730/173/15 726/168/15
f 728/167/16 732/172/16 731/175/16 727/170/16
f 729/171/17 733/176/17 736/177/17 732/172/17
f 730/173/21 734/178/21 733/179/21 729/174/21
f 731/175/22 735/180/22 734/178/22 730/173/22
f 732/172/20 736/177/20 735/180/20 731/175/20
f 733/176/13 737/181/13 740/182/13 736/177/13
f 734/178/14 738/183/14 737/184/14 733/179/14
f 735/180/15 739/185/15 738/183/15 734/178/15
f 736/177/16 740/182/16 739/185/16 735/180/16
f 737/181/33 741/14/33 744/15/33 740/182/33
f 738/183/34 742/16/34 741/1/34 737/184/34
f 739/185/35 743/17/35 742/16/35 738/183/35
f 740/182/36 744/15/36 743/17/36 739/185/36
f 745/5/29 749/106/29 752/107/29 748/8/29
f 746/9/30 750/108/30 749/109/30 745/4/30
f 747/12/31 751/110/31 750/108/31 746/9/31
f 748/8/32 752/107/32 751/110/32 747/12/32
f 749/106/17 753/28/17 756/29/17 752/107/17
f 750/108/21 754/30/21 753/31/21 749/109/21
f 751/110/22 755/32/22 754/30/22 750/108/22
f 752/107/20 756/29/20 755/32/20 751/110/20
f 753/28/13 757/18/13 760/19/13 756/29/13
f 754/30/14 758/20/14 757/21/14 753/31/14
f 755/32/15 759/22/15 758/20/15 754/30/15
f 756/29/16 760/19/16 759/22/16 755/32/16
f 757/18/17 761/33/17 764/34/17 760/19/17
f 758/20/21 762/35/21 761/2/21 757/21/21
f 759/22/22 763/36/22 762/35/22 758/20/22
f 760/19/20 764/34/20 763/36/20 759/22/20
f 761/33/25 765/111/25 768/112/25 764/34/25
f 762/35/26 766/113/26 765/114/26 761/2/26
f 763/36/27 767/115/27 766/113/27 762/35/27
f 764/34/28 768/112/28 767/115/28 763/36/28
f 765/111/23 769/6/23 772/7/23 768/112/23
f 766/113/18 770/10/18 769/11/18 765/114/18
f 767/115/19 771/13/19 770/10/19 766/113/19
f 768/112/24 772/7/24 771/13/24 767/115/24
f 769/6/25 773/116/25 776/117/25 772/7/25
f 770/10/26 774/118/26 773/119/26 769/11/26
f 771/13/27 775/120/27 774/118/27 770/10/27
f 772/7/28 776/117/28 775/120/28 771/13/28
f 773/116/23 777/37/23 780/38/23 776/117/23
f 774/118/18 778/39/18 777/3/18 773/119/18
f 775/120/19 779/40/19 778/39/19 774/118/19
f 776/117/24 780/38/24 779/40/24 775/120/24
f 777/37/13 781/23/13 784/24/13 780/38/13
f 778/39/14 782/25/14 781/26/14 777/3/14
f 779/40/15 783/27/15 782/25/15 778/39/15
f 780/38/16 784/24/16 783/27/16 779/40/16
f 781/23/17 785/41/17 788/42/17 784/24/17
f 782/25/21 786/43/21 785/44/21 781/26/21
f 783/27/22 787/45/22 786/43/22 782/25/22
f 784/24/20 788/42/20 787/45/20 783/27/20
f 785/41/13 789/121/13 792/122/13 788/42/13
f 786/43/14 790/123/14 789/124/14 785/44/14
f 787/45/15 791/125/15 790/123/15 786/43/15
f 788/42/16 792/122/16 791/125/16 787/45/16
f 789/121/33 793/14/33 796/15/33 792/122/33
f 790/123/34 794/16/34 793/1/34 789/124/34
f 791/125/35 795/17/35 794/16/35 790/123/35
f 792/122/36 796/15/36 795/17/36 791/125/36
f 797/5/29 801/66/29 804/67/29 800/8/29
f 798/9/30 802/68/30 801/69/30 797/4/30
f 799/12/31 803/70/31 802/68/31 798/9/31
f 800/8/32 804/67/32 803/70/32 799/12/32
f 801/66/23 805/71/23 808/72/23 804/67/23
f 802/68/21 806/73/21 805/74/21 801/69/21
f 803/70/22 807/75/22 806/73/22 802/68/22
f 804/67/24 808/72/24 807/75/24 803/70/24
f 805/71/25 809/76/25 812/77/25 808/72/25
f 806/73/26 810/78/26 809/79/26 805/74/26
f 807/75/27 811/80/27 810/78/27 806/73/27
f 808/72/28 812/77/28 811/80/28 807/75/28
f 809/76/17 813/81/17 816/82/17 812/77/17
f 810/78/21 814/83/21 813/84/21 809/79/21
f 811/80/22 815/85/22 814/83/22 810/78/22
f 812/77/20 816/82/20 815/85/20 811/80/20
f 813/81/25 817/6/25 820/7/25 816/82/25
f 814/83/26 818/10/26 817/11/26 813/84/26
f 815/85/27 819/13/27 818/10/27 814/83/27
f 816/82/28 820/7/28 819/13/28 815/85/28
f 817/6/23 821/86/23 824/87/23 820/7/23
f 818/10/21 822/88/21 821/89/21 817/11/21
f 819/13/22 823/90/22 822/88/22 818/10/22
f 820/7/24 824/87/24 823/90/24 819/13/24
f 821/86/13 825/91/13 828/92/13 824/87/13
f 822/88/14 826/93/14 825/94/14 821/89/14
f 823/90/15 827/95/15 826/93/15 822/88/15
f 824/87/16 828/92/16 827/95/16 823/90/16
f 825/91/17 829/96/17 832/97/17 828/92/17
f 826/93/21 830/98/21 829/99/21 825/94/21
f 827/95/22 831/100/22 830/98/22 826/93/22
f 828/92/20 832/97/20 831/100/20 827/95/20
f 829/96/13 833/101/13 836/102/13 832/97/13
f 830/98/14 834/103/14 833/104/14 829/99/14
f 831/100/15 835/105/15 834/103/15 830/98/15
f 832/97/16 836/102/16 835/105/16 831/100/16
f 833/101/33 837/14/33 840/15/33 836/102/33
f 834/103/34 838/16/34 837/1/34 833/104/34
f 835/105/35 839/17/35 838/16/35 834/103/35
f 836/102/36 840/15/36 839/17/36 835/105/36
f 841/5/29 845/46/29 848/47/29 844/8/29
f 842/9/30 846/48/30 845/49/30 841/4/30
f 843/12/31 847/50/31 846/48/31 842/9/31
f 844/8/32 848/47/32 847/50/32 843/12/32
f 845/46/23 849/18/23 852/19/23 848/47/23
f 846/48/21 850/20/21 849/21/21 845/49/21
f 847/50/22 851/22/22 850/20/22 846/48/22
f 848/47/24 852/19/24 851/22/24 847/50/24
f 849/18/25 853/51/25 856/52/25 852/19/25
f 850/20/26 854/53/26 853/54/26 849/21/26
f 851/22/27 855/55/27 854/53/27 850/20/27
f 852/19/28 856/52/28 855/55/28 851/22/28
f 853/51/23 857/6/23 860/7/23 856/52/23
f 854/53/21 858/10/21 857/11/21 853/54/21
f 855/55/22 859/13/22 858/10/22 854/53/22
f 856/52/24 860/7/24 859/13/24 855/55/24
f 857/6/13 861/56/13 864/57/13 860/7/13
f 858/10/14 862/58/14 861/59/14 857/11/14
f 859/13/15 863/60/15 862/58/15 858/10/15
f 860/7/16 864/57/16 863/60/16 859/13/16
f 861/56/23 865/23/23 868/24/23 864/57/23
f 862/58/18 866/25/18 865/26/18 861/59/18
f 863/60/19 867/27/19 866/25/19 862/58/19
f 864/57/24 868/24/24 867/27/24 863/60/24
f 865/23/13 869/61/13 872/62/13 868/24/13
f 866/25/14 870/63/14 869/64/14 865/26/14
f 867/27/15 871/65/15 870/63/15 866/25/15
f 868/24/16 872/62/16 871/65/16 867/27/16
f 869/61/33 873/14/33 876/15/33 872/62/33
f 870/63/34 874/16/34 873/1/34 869/64/34
f 871/65/35 875/17/35 874/16/35 870/63/35
f 872/62/36 876/15/36 875/17/36 871/65/36
f 877/5/29 881/28/29 884/29/29 880/8/29
f 878/9/30 882/30/30 881/31/30 877/4/30
f 879/12/31 883/32/31 882/30/31 878/9/31
f 880/8/32 884/29/32 883/32/32 879/12/32
f 881/28/23 885/33/23 888/34/23 884/29/23
f 882/30/21 886/35/21 885/2/21 881/31/21
f 883/32/22 887/36/22 886/35/22 882/30/22
f 884/29/24 888/34/24 887/36/24 883/32/24
f 885/33/13 889/6/13 892/7/13 888/34/13
f 886/35/14 890/10/14 889/11/14 885/2/14
f 887/36/15 891/13/15 890/10/15 886/35/15
f 888/34/16 892/7/16 891/13/16 887/36/16
f 889/6/17 893/37/17 896/38/17 892/7/17
f 890/10/21 894/39/21 893/3/21 889/11/21
f 891/13/22 895/40/22 894/39/22 890/10/22
f 892/7/20 896/38/20 895/40/20 891/13/20
f 893/37/13 897/41/13 900/42/13 896/38/13
f 894/39/14 898/43/14 897/44/14 893/3/14
f 895/40/15 899/45/15 898/43/15 894/39/15
f 896/38/16 900/42/16 899/45/16 895/40/16
f 897/41/33 901/14/33 904/15/33 900/42/33
f 898/43/34 902/16/34 901/1/34 897/44/34
f 899/45/35 903/17/35 902/16/35 898/43/35
f 900/42/36 904/15/36 903/17/36 899/45/36
f 905/5/29 909/18/29 912/19/29 908/8/29
f 906/9/30 910/20/30 909/21/30 905/4/30
f 907/12/31 911/22/31 910/20/31 906/9/31
f 908/8/32 912/19/32 911/22/32 907/12/32
f 909/18/23 913/6/23 916/7/23 912/19/23
f 910/20/21 914/10/21 913/11/21 909/21/21
f 911/22/22 915/13/22 914/10/22 910/20/22
f 912/19/24 916/7/24 915/13/24 911/22/24
f 913/6/13 917/23/13 920/24/13 916/7/13
f 914/10/14 918/25/14 917/26/14 913/11/14
f 915/13/15 919/27/15 918/25/15 914/10/15
f 916/7/16 920/24/16 919/27/16 915/13/16
f 917/23/33 921/14/33 924/15/33 920/24/33
f 918/25/34 922/16/34 921/1/34 917/26/34
f 919/27/35 923/17/35 922/16/35 918/25/35
f 920/24/36 924/15/36 923/17/36 919/27/36
f 925/5/29 929/6/29 932/7/29 928/8/29
f 926/9/30 930/10/30 929/11/30 925/4/30
f 927/12/31 931/13/31 930/10/31 926/9/31
f 928/8/32 932/7/32 931/13/32 927/12/32
f 929/6/33 933/14/33 936/15/33 932/7/33
f 930/10/37 934/16/37 933/1/37 929/11/37
f 931/13/38 935/17/38 934/16/38 930/10/38
f 932/7/36 936/15/36 935/17/36 931/13/36
